<?xml version="1.0" encoding="UTF-8" standalone="no"?>
<svg
        xmlns:dc="http://purl.org/dc/elements/1.1/"
        xmlns:cc="http://creativecommons.org/ns#"
        xmlns:rdf="http://www.w3.org/1999/02/22-rdf-syntax-ns#"
        xmlns:svg="http://www.w3.org/2000/svg"
        xmlns="http://www.w3.org/2000/svg"
        xmlns:sodipodi="http://sodipodi.sourceforge.net/DTD/sodipodi-0.dtd"
        xmlns:inkscape="http://www.inkscape.org/namespaces/inkscape"
        inkscape:version="1.0 (4035a4f, 2020-05-01)"
        height="24"
        width="24"
        sodipodi:docname="reddit.svg"
        id="svg20"
        xml:space="preserve"
        viewBox="0 0 24.000001 24.000001"
        y="0px"
        x="0px"
        version="1.1"><metadata
   id="metadata26"><rdf:RDF><cc:Work
       rdf:about=""><dc:format>image/svg+xml</dc:format><dc:type
        rdf:resource="http://purl.org/dc/dcmitype/StillImage" /><dc:title></dc:title></cc:Work></rdf:RDF></metadata><defs
        id="defs24" /><sodipodi:namedview
        inkscape:current-layer="svg20"
        inkscape:window-maximized="1"
        inkscape:window-y="0"
        inkscape:window-x="0"
        inkscape:cy="122.70258"
        inkscape:cx="170.89999"
        inkscape:zoom="2.4897602"
        showgrid="false"
        id="namedview22"
        inkscape:window-height="1002"
        inkscape:window-width="1920"
        inkscape:pageshadow="2"
        inkscape:pageopacity="0"
        guidetolerance="10"
        gridtolerance="10"
        objecttolerance="10"
        borderopacity="1"
        bordercolor="#666666"
        pagecolor="#ffffff" />
    <style
            id="style2"
            type="text/css">
	.st1{fill:#000000;}
	.st2{display:none;}
	.st3{display:inline;fill:none;stroke:#D8D8D8;stroke-width:0.5;stroke-miterlimit:10;}
</style>
    <g
            transform="matrix(0.21089631,0,0,0.23622047,-24.063271,-28.157483)"
            id="Artwork">
	<g
            id="g6">
		<path
                id="path4"
                d="m 227.9,170.9 c 0,-6.9 -5.6,-12.5 -12.5,-12.5 -3.4,0 -6.4,1.3 -8.6,3.5 -8.5,-6.1 -20.3,-10.1 -33.3,-10.6 l 5.7,-26.7 18.5,3.9 c 0.2,4.7 4.1,8.5 8.9,8.5 4.9,0 8.9,-4 8.9,-8.9 0,-4.9 -4,-8.9 -8.9,-8.9 -3.5,0 -6.5,2 -7.9,5 L 178,119.8 c -0.6,-0.1 -1.2,0 -1.7,0.3 -0.5,0.3 -0.8,0.8 -1,1.4 l -6.3,29.8 c -13.3,0.4 -25.2,4.3 -33.8,10.6 -2.2,-2.1 -5.3,-3.5 -8.6,-3.5 -6.9,0 -12.5,5.6 -12.5,12.5 0,5.1 3,9.4 7.4,11.4 -0.2,1.2 -0.3,2.5 -0.3,3.8 0,19.2 22.3,34.7 49.9,34.7 27.6,0 49.9,-15.5 49.9,-34.7 0,-1.3 -0.1,-2.5 -0.3,-3.7 4.1,-2 7.2,-6.4 7.2,-11.5 z m -85.5,8.9 c 0,-4.9 4,-8.9 8.9,-8.9 4.9,0 8.9,4 8.9,8.9 0,4.9 -4,8.9 -8.9,8.9 -4.9,0 -8.9,-4 -8.9,-8.9 z m 49.7,23.5 c -6.1,6.1 -17.7,6.5 -21.1,6.5 -3.4,0 -15.1,-0.5 -21.1,-6.5 -0.9,-0.9 -0.9,-2.4 0,-3.3 0.9,-0.9 2.4,-0.9 3.3,0 3.8,3.8 12,5.2 17.9,5.2 5.9,0 14,-1.4 17.9,-5.2 0.9,-0.9 2.4,-0.9 3.3,0 0.7,1 0.7,2.4 -0.2,3.3 z m -1.6,-14.6 c -4.9,0 -8.9,-4 -8.9,-8.9 0,-4.9 4,-8.9 8.9,-8.9 4.9,0 8.9,4 8.9,8.9 0,4.9 -4,8.9 -8.9,8.9 z"
                class="st1" />
	</g>
</g>
    <g
            class="st2"
            id="Spacing_Guide">
	<rect
            y="0"
            x="0"
            id="rect9"
            height="85.400002"
            width="85.400002"
            class="st3" />
        <rect
                y="0"
                x="0"
                id="rect11"
                height="85.400002"
                width="341.79999"
                class="st3" />
        <rect
                x="0"
                id="rect13"
                height="85.400002"
                width="341.79999"
                class="st3"
                y="256.29999" />
        <rect
                y="0"
                x="0"
                id="rect15"
                height="341.79999"
                width="85.400002"
                class="st3" />
        <rect
                y="0"
                id="rect17"
                height="341.79999"
                width="85.400002"
                class="st3"
                x="256.39999" />
</g>
</svg>