<?xml version="1.0" encoding="UTF-8"?>
<svg xmlns="http://www.w3.org/2000/svg" xmlns:xlink="http://www.w3.org/1999/xlink" width="231pt" height="231pt" viewBox="0 0 231 231" version="1.1">
<defs>
<clipPath id="clip1">
  <path d="M 35 114 L 109 114 L 109 153.902344 L 35 153.902344 Z M 35 114 "/>
</clipPath>
<clipPath id="clip2">
  <path d="M 16.445312 103.910156 L 118.496094 103.910156 L 118.496094 153.902344 L 16.445312 153.902344 Z M 16.445312 103.910156 "/>
</clipPath>
<clipPath id="clip3">
  <path d="M 88 153 L 97 153 L 97 153.902344 L 88 153.902344 Z M 88 153 "/>
</clipPath>
<clipPath id="clip4">
  <path d="M 49 153 L 58 153 L 58 153.902344 L 49 153.902344 Z M 49 153 "/>
</clipPath>
<clipPath id="clip5">
  <path d="M 32 140 L 75 140 L 75 153.902344 L 32 153.902344 Z M 32 140 "/>
</clipPath>
<clipPath id="clip6">
  <path d="M 33 143 L 77 143 L 77 153.902344 L 33 153.902344 Z M 33 143 "/>
</clipPath>
<clipPath id="clip7">
  <path d="M 34 145 L 78 145 L 78 153.902344 L 34 153.902344 Z M 34 145 "/>
</clipPath>
<clipPath id="clip8">
  <path d="M 42 149 L 78 149 L 78 153.902344 L 42 153.902344 Z M 42 149 "/>
</clipPath>
<clipPath id="clip9">
  <path d="M 72 140 L 116 140 L 116 153.902344 L 72 153.902344 Z M 72 140 "/>
</clipPath>
<clipPath id="clip10">
  <path d="M 71 143 L 114 143 L 114 153.902344 L 71 153.902344 Z M 71 143 "/>
</clipPath>
<clipPath id="clip11">
  <path d="M 70 145 L 113 145 L 113 153.902344 L 70 153.902344 Z M 70 145 "/>
</clipPath>
<clipPath id="clip12">
  <path d="M 69 149 L 106 149 L 106 153.902344 L 69 153.902344 Z M 69 149 "/>
</clipPath>
<clipPath id="clip13">
  <path d="M 61 142 L 86 142 L 86 153.902344 L 61 153.902344 Z M 61 142 "/>
</clipPath>
<clipPath id="clip14">
  <path d="M 40 121 L 107 121 L 107 153.902344 L 40 153.902344 Z M 40 121 "/>
</clipPath>
<clipPath id="clip15">
  <path d="M 65 117 L 118.496094 117 L 118.496094 153.902344 L 65 153.902344 Z M 65 117 "/>
</clipPath>
<clipPath id="clip16">
  <path d="M 66 107 L 118.496094 107 L 118.496094 153 L 66 153 Z M 66 107 "/>
</clipPath>
<clipPath id="clip17">
  <path d="M 52 131 L 103 131 L 103 153.902344 L 52 153.902344 Z M 52 131 "/>
</clipPath>
<clipPath id="clip18">
  <path d="M 44 131 L 95 131 L 95 153.902344 L 44 153.902344 Z M 44 131 "/>
</clipPath>
<clipPath id="clip19">
  <path d="M 68 148 L 79 148 L 79 153.902344 L 68 153.902344 Z M 68 148 "/>
</clipPath>
<clipPath id="clip20">
  <path d="M 47 127 L 100 127 L 100 153.902344 L 47 153.902344 Z M 47 127 "/>
</clipPath>
<clipPath id="clip21">
  <path d="M 26 117 L 81 117 L 81 153.902344 L 26 153.902344 Z M 26 117 "/>
</clipPath>
</defs>
<g id="surface1001">
<path style="fill:none;stroke-width:1.05833;stroke-linecap:butt;stroke-linejoin:miter;stroke:rgb(23.529412%,43.137255%,70.588237%);stroke-opacity:1;stroke-miterlimit:4;" d="M 963.982936 -1.26573 L 976.705286 -1.26573 " transform="matrix(4.691239,0,0,4.691239,-4396.927103,116.36753)"/>
<path style="fill:none;stroke-width:1.05833;stroke-linecap:butt;stroke-linejoin:miter;stroke:rgb(23.529412%,43.137255%,70.588237%);stroke-opacity:1;stroke-miterlimit:4;" d="M 966.09958 1.380492 L 978.821931 1.380492 " transform="matrix(4.691239,0,0,4.691239,-4396.927103,116.36753)"/>
<path style="fill-rule:evenodd;fill:rgb(80.000001%,80.000001%,80.000001%);fill-opacity:1;stroke-width:0.689901;stroke-linecap:butt;stroke-linejoin:miter;stroke:rgb(0%,0%,0%);stroke-opacity:1;stroke-miterlimit:4;" d="M 973.103342 3.398359 C 970.79513 -0.343921 971.312088 -3.953815 970.220249 -9.111839 C 969.621475 -12.297081 967.599256 -14.926733 964.966678 -15.889612 C 962.794585 -16.647039 958.28387 -16.649209 956.371703 -15.889612 C 953.739126 -14.926733 951.716906 -12.297081 951.118132 -9.111839 C 950.026293 -3.953815 950.543252 -0.343921 948.23504 3.398359 " transform="matrix(5.39514,0,0,5.399658,-5072.114684,118.42737)"/>
<path style=" stroke:none;fill-rule:nonzero;fill:rgb(90.588236%,90.980393%,91.37255%);fill-opacity:1;" d="M 148.652344 96.25 C 148.652344 99.753906 145.957031 102.59375 142.632812 102.59375 C 139.304688 102.59375 136.609375 99.753906 136.609375 96.25 C 136.609375 92.746094 139.304688 89.910156 142.632812 89.910156 C 145.957031 89.910156 148.652344 92.746094 148.652344 96.25 Z M 148.652344 96.25 "/>
<path style=" stroke:none;fill-rule:nonzero;fill:rgb(90.588236%,90.980393%,91.37255%);fill-opacity:1;" d="M 87.8125 96.25 C 87.8125 99.753906 85.117188 102.59375 81.792969 102.59375 C 78.46875 102.59375 75.773438 99.753906 75.773438 96.25 C 75.773438 92.746094 78.46875 89.910156 81.792969 89.910156 C 85.117188 89.910156 87.8125 92.746094 87.8125 96.25 Z M 87.8125 96.25 "/>
<path style="fill:none;stroke-width:0.518003;stroke-linecap:butt;stroke-linejoin:miter;stroke:rgb(65.490198%,66.274512%,67.450982%);stroke-opacity:1;stroke-miterlimit:4;" d="M 956.418913 -5.981574 L 951.748054 -4.730101 " transform="matrix(4.790339,0,0,4.79435,-4489.321102,121.439483)"/>
<path style="fill:none;stroke-width:0.518003;stroke-linecap:butt;stroke-linejoin:miter;stroke:rgb(65.490198%,66.274512%,67.450982%);stroke-opacity:1;stroke-miterlimit:4;" d="M 956.948136 -5.253993 L 952.251182 -2.542468 " transform="matrix(4.790339,0,0,4.79435,-4489.321102,121.439483)"/>
<path style="fill:none;stroke-width:0.518003;stroke-linecap:butt;stroke-linejoin:miter;stroke:rgb(65.490198%,66.274512%,67.450982%);stroke-opacity:1;stroke-miterlimit:4;" d="M 957.345256 -4.393605 L 952.582252 0.368673 " transform="matrix(4.790339,0,0,4.79435,-4489.321102,121.439483)"/>
<path style="fill:none;stroke-width:0.518003;stroke-linecap:butt;stroke-linejoin:miter;stroke:rgb(65.490198%,66.274512%,67.450982%);stroke-opacity:1;stroke-miterlimit:4;" d="M 957.543409 -3.269235 L 955.109311 0.946339 " transform="matrix(4.790339,0,0,4.79435,-4489.321102,121.439483)"/>
<path style="fill:none;stroke-width:0.518003;stroke-linecap:butt;stroke-linejoin:miter;stroke:rgb(65.490198%,66.274512%,67.450982%);stroke-opacity:1;stroke-miterlimit:4;" d="M 956.419287 -5.981574 L 951.748428 -4.730101 " transform="matrix(-4.790339,0,0,4.79435,4715.522115,121.439482)"/>
<path style="fill:none;stroke-width:0.518003;stroke-linecap:butt;stroke-linejoin:miter;stroke:rgb(65.490198%,66.274512%,67.450982%);stroke-opacity:1;stroke-miterlimit:4;" d="M 956.947695 -5.253993 L 952.251557 -2.542468 " transform="matrix(-4.790339,0,0,4.79435,4715.522115,121.439482)"/>
<path style="fill:none;stroke-width:0.518003;stroke-linecap:butt;stroke-linejoin:miter;stroke:rgb(65.490198%,66.274512%,67.450982%);stroke-opacity:1;stroke-miterlimit:4;" d="M 957.344816 -4.393605 L 952.582627 0.368673 " transform="matrix(-4.790339,0,0,4.79435,4715.522115,121.439482)"/>
<path style="fill:none;stroke-width:0.518003;stroke-linecap:butt;stroke-linejoin:miter;stroke:rgb(65.490198%,66.274512%,67.450982%);stroke-opacity:1;stroke-miterlimit:4;" d="M 957.543784 -3.269235 L 955.109686 0.946339 " transform="matrix(-4.790339,0,0,4.79435,4715.522115,121.439482)"/>
<path style="fill-rule:nonzero;fill:rgb(100%,100%,100%);fill-opacity:1;stroke-width:0.689901;stroke-linecap:square;stroke-linejoin:miter;stroke:rgb(37.64706%,37.64706%,35.686275%);stroke-opacity:1;stroke-miterlimit:4;" d="M 964.62566 -4.928992 C 964.62566 -3.048086 963.021206 -1.523105 961.043153 -1.523105 C 959.064375 -1.523105 957.459922 -3.048086 957.459922 -4.928992 C 957.459922 -6.810622 959.064375 -8.335603 961.043153 -8.335603 C 963.021206 -8.335603 964.62566 -6.810622 964.62566 -4.928992 Z M 964.62566 -4.928992 " transform="matrix(5.39514,0,0,5.399658,-5072.114684,118.42737)"/>
<path style="fill-rule:nonzero;fill:rgb(0%,0%,0%);fill-opacity:1;stroke-width:0.689901;stroke-linecap:square;stroke-linejoin:miter;stroke:rgb(53.725493%,17.254902%,62.7451%);stroke-opacity:1;stroke-miterlimit:4;" d="M -964.802323 -7.84078 C -964.802323 -6.863432 -965.574865 -6.071281 -966.52769 -6.071281 C -967.480515 -6.071281 -968.252332 -6.863432 -968.252332 -7.84078 C -968.252332 -8.817404 -967.480515 -9.609555 -966.52769 -9.609555 C -965.574865 -9.609555 -964.802323 -8.817404 -964.802323 -7.84078 Z M -964.802323 -7.84078 " transform="matrix(-5.39514,0,0,5.399658,-5072.114684,118.42737)"/>
<path style="fill:none;stroke-width:0.689901;stroke-linecap:square;stroke-linejoin:miter;stroke:rgb(0%,0%,0%);stroke-opacity:1;stroke-miterlimit:4;" d="M 968.07422 -11.543995 C 967.729582 -11.992519 967.180766 -12.277549 966.616022 -12.301422 C 966.08241 -12.324571 965.543007 -12.115501 965.163615 -11.740043 " transform="matrix(5.39514,0,0,5.399658,-5072.114684,118.42737)"/>
<path style="fill:none;stroke-width:0.777004;stroke-linecap:butt;stroke-linejoin:miter;stroke:rgb(0%,0%,0%);stroke-opacity:1;stroke-miterlimit:4;" d="M 962.306244 -5.782814 L 962.404912 -3.798871 C 962.404912 -3.798871 963.99258 -2.376298 964.918924 -3.831461 C 964.918924 -3.831461 964.81944 -4.658444 964.753389 -4.923241 " transform="matrix(4.790339,0,0,4.79435,-4496.925758,116.365462)"/>
<path style="fill:none;stroke-width:0.777004;stroke-linecap:butt;stroke-linejoin:miter;stroke:rgb(0%,0%,0%);stroke-opacity:1;stroke-miterlimit:4;" d="M 962.287489 -5.782814 L 962.188004 -3.798871 C 962.188004 -3.798871 960.600336 -2.376298 959.674808 -3.831461 C 959.674808 -3.831461 959.774292 -4.658444 959.840343 -4.923241 " transform="matrix(4.790339,0,0,4.79435,-4496.925758,116.365462)"/>
<path style="fill-rule:nonzero;fill:rgb(50.196081%,50.196081%,50.196081%);fill-opacity:1;stroke-width:0.689901;stroke-linecap:square;stroke-linejoin:miter;stroke:rgb(0%,0%,0%);stroke-opacity:1;stroke-miterlimit:4;" d="M 962.571583 -5.543904 C 962.451394 -5.854977 962.451394 -6.476399 962.090826 -6.476399 C 961.730983 -6.476399 961.397204 -6.710066 961.043153 -6.710066 C 960.688378 -6.710066 960.355323 -6.476399 959.994756 -6.476399 C 959.634188 -6.476399 959.634188 -5.854977 959.513999 -5.543904 C 959.39381 -5.232831 961.043153 -4.221482 961.043153 -4.221482 C 961.043153 -4.221482 962.691772 -5.232831 962.571583 -5.543904 Z M 962.571583 -5.543904 " transform="matrix(5.39514,0,0,5.399658,-5072.114684,118.42737)"/>
<path style="fill-rule:nonzero;fill:rgb(0%,0%,0%);fill-opacity:1;stroke-width:0.689901;stroke-linecap:square;stroke-linejoin:miter;stroke:rgb(53.725493%,17.254902%,62.7451%);stroke-opacity:1;stroke-miterlimit:4;" d="M 957.085598 -7.84078 C 957.085598 -6.863432 956.313057 -6.071281 955.360232 -6.071281 C 954.407406 -6.071281 953.634865 -6.863432 953.634865 -7.84078 C 953.634865 -8.817404 954.407406 -9.609555 955.360232 -9.609555 C 956.313057 -9.609555 957.085598 -8.817404 957.085598 -7.84078 Z M 957.085598 -7.84078 " transform="matrix(5.39514,0,0,5.399658,-5072.114684,118.42737)"/>
<path style=" stroke:none;fill-rule:nonzero;fill:rgb(100%,100%,100%);fill-opacity:1;" d="M 83.660156 73.402344 C 83.660156 76.03125 81.609375 78.160156 79.082031 78.160156 C 76.554688 78.160156 74.503906 76.03125 74.503906 73.402344 C 74.503906 70.773438 76.554688 68.644531 79.082031 68.644531 C 81.609375 68.644531 83.660156 70.773438 83.660156 73.402344 Z M 83.660156 73.402344 "/>
<path style="fill:none;stroke-width:0.689901;stroke-linecap:square;stroke-linejoin:miter;stroke:rgb(0%,0%,0%);stroke-opacity:1;stroke-miterlimit:4;" d="M 953.813701 -11.543995 C 954.15834 -11.992519 954.707155 -12.277549 955.2719 -12.301422 C 955.805511 -12.324571 956.344914 -12.115501 956.723582 -11.740043 " transform="matrix(5.39514,0,0,5.399658,-5072.114684,118.42737)"/>
<path style=" stroke:none;fill-rule:nonzero;fill:rgb(100%,100%,100%);fill-opacity:1;" d="M 143.878906 73.402344 C 143.878906 76.03125 141.832031 78.160156 139.304688 78.160156 C 136.773438 78.160156 134.726562 76.03125 134.726562 73.402344 C 134.726562 70.773438 136.773438 68.644531 139.304688 68.644531 C 141.832031 68.644531 143.878906 70.773438 143.878906 73.402344 Z M 143.878906 73.402344 "/>
<path style="fill:none;stroke-width:1.05833;stroke-linecap:butt;stroke-linejoin:miter;stroke:rgb(23.529412%,43.137255%,70.588237%);stroke-opacity:1;stroke-miterlimit:4;" d="M 948.212183 4.293169 L 981.139249 4.293169 " transform="matrix(4.691239,0,0,4.691239,-4396.927103,116.36753)"/>
<g clip-path="url(#clip1)" clip-rule="nonzero">
<path style=" stroke:none;fill-rule:evenodd;fill:rgb(80.000001%,80.000001%,80.000001%);fill-opacity:1;" d="M 108.621094 163.210938 C 107.601562 156.265625 107.105469 148.710938 105.21875 139.828125 C 103.152344 128.847656 96.171875 119.789062 87.085938 116.472656 C 79.59375 113.859375 64.023438 113.851562 57.425781 116.472656 C 48.339844 119.789062 41.359375 128.847656 39.292969 139.828125 C 37.410156 148.710938 36.914062 156.265625 35.894531 163.210938 "/>
</g>
<g clip-path="url(#clip2)" clip-rule="nonzero">
<path style="fill:none;stroke-width:0.955767;stroke-linecap:butt;stroke-linejoin:miter;stroke:rgb(0%,0%,0%);stroke-opacity:1;stroke-miterlimit:4;" d="M 958.31612 13.737865 C 958.054434 11.955189 957.9271 10.016103 957.442829 7.736122 C 956.912438 4.917729 955.120738 2.592631 952.788621 1.741398 C 950.865577 1.070638 946.869094 1.068633 945.175652 1.741398 C 942.843534 2.592631 941.051835 4.917729 940.521443 7.736122 C 940.038176 10.016103 939.910842 11.955189 939.649155 13.737865 " transform="matrix(3.896004,0,0,3.896004,-3624.981994,109.688165)"/>
</g>
<g clip-path="url(#clip3)" clip-rule="nonzero">
<path style=" stroke:none;fill-rule:nonzero;fill:rgb(90.588236%,90.980393%,91.37255%);fill-opacity:1;" d="M 96.449219 157.074219 C 96.449219 159.308594 94.726562 161.121094 92.597656 161.121094 C 90.472656 161.121094 88.746094 159.308594 88.746094 157.074219 C 88.746094 154.835938 90.472656 153.023438 92.597656 153.023438 C 94.726562 153.023438 96.449219 154.835938 96.449219 157.074219 Z M 96.449219 157.074219 "/>
</g>
<g clip-path="url(#clip4)" clip-rule="nonzero">
<path style=" stroke:none;fill-rule:nonzero;fill:rgb(90.588236%,90.980393%,91.37255%);fill-opacity:1;" d="M 57.535156 157.074219 C 57.535156 159.308594 55.808594 161.121094 53.683594 161.121094 C 51.554688 161.121094 49.832031 159.308594 49.832031 157.074219 C 49.832031 154.835938 51.554688 153.023438 53.683594 153.023438 C 55.808594 153.023438 57.535156 154.835938 57.535156 157.074219 Z M 57.535156 157.074219 "/>
</g>
<g clip-path="url(#clip5)" clip-rule="nonzero">
<path style="fill:none;stroke-width:0.810747;stroke-linecap:butt;stroke-linejoin:miter;stroke:rgb(65.490198%,66.274512%,67.450982%);stroke-opacity:1;stroke-miterlimit:4;" d="M 956.418798 -5.980935 L 951.748076 -4.729733 " transform="matrix(3.064302,0,0,3.059557,-2870.38448,173.146666)"/>
</g>
<g clip-path="url(#clip6)" clip-rule="nonzero">
<path style="fill:none;stroke-width:0.810747;stroke-linecap:butt;stroke-linejoin:miter;stroke:rgb(65.490198%,66.274512%,67.450982%);stroke-opacity:1;stroke-miterlimit:4;" d="M 956.947824 -5.253195 L 952.251607 -2.542682 " transform="matrix(3.064302,0,0,3.059557,-2870.38448,173.146666)"/>
</g>
<g clip-path="url(#clip7)" clip-rule="nonzero">
<path style="fill:none;stroke-width:0.810747;stroke-linecap:butt;stroke-linejoin:miter;stroke:rgb(65.490198%,66.274512%,67.450982%);stroke-opacity:1;stroke-miterlimit:4;" d="M 957.345549 -4.393951 L 952.583044 0.368279 " transform="matrix(3.064302,0,0,3.059557,-2870.38448,173.146666)"/>
</g>
<g clip-path="url(#clip8)" clip-rule="nonzero">
<path style="fill:none;stroke-width:0.810747;stroke-linecap:butt;stroke-linejoin:miter;stroke:rgb(65.490198%,66.274512%,67.450982%);stroke-opacity:1;stroke-miterlimit:4;" d="M 957.543137 -3.269145 L 955.109619 0.946641 " transform="matrix(3.064302,0,0,3.059557,-2870.38448,173.146666)"/>
</g>
<g clip-path="url(#clip9)" clip-rule="nonzero">
<path style="fill:none;stroke-width:0.810747;stroke-linecap:butt;stroke-linejoin:miter;stroke:rgb(65.490198%,66.274512%,67.450982%);stroke-opacity:1;stroke-miterlimit:4;" d="M 956.418709 -5.980935 L 951.747987 -4.729733 " transform="matrix(-3.064302,0,0,3.059557,3017.802176,173.146666)"/>
</g>
<g clip-path="url(#clip10)" clip-rule="nonzero">
<path style="fill:none;stroke-width:0.810747;stroke-linecap:butt;stroke-linejoin:miter;stroke:rgb(65.490198%,66.274512%,67.450982%);stroke-opacity:1;stroke-miterlimit:4;" d="M 956.947735 -5.253195 L 952.251518 -2.542682 " transform="matrix(-3.064302,0,0,3.059557,3017.802176,173.146666)"/>
</g>
<g clip-path="url(#clip11)" clip-rule="nonzero">
<path style="fill:none;stroke-width:0.810747;stroke-linecap:butt;stroke-linejoin:miter;stroke:rgb(65.490198%,66.274512%,67.450982%);stroke-opacity:1;stroke-miterlimit:4;" d="M 957.34546 -4.393951 L 952.582955 0.368279 " transform="matrix(-3.064302,0,0,3.059557,3017.802176,173.146666)"/>
</g>
<g clip-path="url(#clip12)" clip-rule="nonzero">
<path style="fill:none;stroke-width:0.810747;stroke-linecap:butt;stroke-linejoin:miter;stroke:rgb(65.490198%,66.274512%,67.450982%);stroke-opacity:1;stroke-miterlimit:4;" d="M 957.543048 -3.269145 L 955.10953 0.946641 " transform="matrix(-3.064302,0,0,3.059557,3017.802176,173.146666)"/>
</g>
<g clip-path="url(#clip13)" clip-rule="nonzero">
<path style=" stroke:none;fill-rule:nonzero;fill:rgb(100%,100%,100%);fill-opacity:1;" d="M 85.910156 154.238281 C 85.910156 160.722656 80.375 165.976562 73.546875 165.976562 C 66.71875 165.976562 61.183594 160.722656 61.183594 154.238281 C 61.183594 147.757812 66.71875 142.5 73.546875 142.5 C 80.375 142.5 85.910156 147.757812 85.910156 154.238281 Z M 85.910156 154.238281 "/>
</g>
<g clip-path="url(#clip14)" clip-rule="nonzero">
<path style="fill:none;stroke-width:0.955767;stroke-linecap:square;stroke-linejoin:miter;stroke:rgb(37.64706%,37.64706%,35.686275%);stroke-opacity:1;stroke-miterlimit:4;" d="M 952.486829 11.434824 C 952.486829 13.09919 951.066103 14.447727 949.313505 14.447727 C 947.560908 14.447727 946.140182 13.09919 946.140182 11.434824 C 946.140182 9.771461 947.560908 8.421921 949.313505 8.421921 C 951.066103 8.421921 952.486829 9.771461 952.486829 11.434824 Z M 952.486829 11.434824 " transform="matrix(3.896004,0,0,3.896004,-3624.981994,109.688165)"/>
</g>
<path style=" stroke:none;fill-rule:nonzero;fill:rgb(0%,0%,0%);fill-opacity:1;" d="M 86.519531 144.207031 C 86.519531 147.574219 89.1875 150.300781 92.472656 150.300781 C 95.761719 150.300781 98.429688 147.574219 98.429688 144.207031 C 98.429688 140.839844 95.761719 138.109375 92.472656 138.109375 C 89.1875 138.109375 86.519531 140.839844 86.519531 144.207031 Z M 86.519531 144.207031 "/>
<g clip-path="url(#clip15)" clip-rule="nonzero">
<path style="fill:none;stroke-width:0.955767;stroke-linecap:square;stroke-linejoin:miter;stroke:rgb(53.725493%,17.254902%,62.7451%);stroke-opacity:1;stroke-miterlimit:4;" d="M -952.64324 8.86007 C -952.64324 9.724337 -953.328036 10.424173 -954.171248 10.424173 C -955.015462 10.424173 -955.700258 9.724337 -955.700258 8.86007 C -955.700258 7.995803 -955.015462 7.294965 -954.171248 7.294965 C -953.328036 7.294965 -952.64324 7.995803 -952.64324 8.86007 Z M -952.64324 8.86007 " transform="matrix(-3.896004,0,0,3.896004,-3624.981994,109.688165)"/>
</g>
<g clip-path="url(#clip16)" clip-rule="nonzero">
<path style="fill:none;stroke-width:0.955767;stroke-linecap:square;stroke-linejoin:miter;stroke:rgb(0%,0%,0%);stroke-opacity:1;stroke-miterlimit:4;" d="M 955.541843 5.584478 C 955.236041 5.187437 954.750768 4.935777 954.250455 4.914722 C 953.778217 4.894669 953.299962 5.079153 952.964081 5.411023 " transform="matrix(3.896004,0,0,3.896004,-3624.981994,109.688165)"/>
</g>
<g clip-path="url(#clip17)" clip-rule="nonzero">
<path style="fill:none;stroke-width:1.21612;stroke-linecap:butt;stroke-linejoin:miter;stroke:rgb(0%,0%,0%);stroke-opacity:1;stroke-miterlimit:4;" d="M 962.30607 -5.783124 L 962.405501 -3.799074 C 962.405501 -3.799074 963.992578 -2.376789 964.919329 -3.83227 C 964.919329 -3.83227 964.819897 -4.658319 964.75361 -4.922603 " transform="matrix(3.064302,0,0,3.059557,-2875.249075,169.908639)"/>
</g>
<g clip-path="url(#clip18)" clip-rule="nonzero">
<path style="fill:none;stroke-width:1.21612;stroke-linecap:butt;stroke-linejoin:miter;stroke:rgb(0%,0%,0%);stroke-opacity:1;stroke-miterlimit:4;" d="M 962.286949 -5.783124 L 962.188792 -3.799074 C 962.188792 -3.799074 960.600441 -2.376789 959.674965 -3.83227 C 959.674965 -3.83227 959.774396 -4.658319 959.840684 -4.922603 " transform="matrix(3.064302,0,0,3.059557,-2875.249075,169.908639)"/>
</g>
<g clip-path="url(#clip19)" clip-rule="nonzero">
<path style=" stroke:none;fill-rule:nonzero;fill:rgb(50.196081%,50.196081%,50.196081%);fill-opacity:1;" d="M 78.824219 152.121094 C 78.40625 151.050781 78.40625 148.90625 77.164062 148.90625 C 75.921875 148.90625 74.769531 148.101562 73.546875 148.101562 C 72.324219 148.101562 71.171875 148.90625 69.929688 148.90625 C 68.683594 148.90625 68.683594 151.050781 68.269531 152.121094 C 67.855469 153.195312 73.546875 156.675781 73.546875 156.675781 C 73.546875 156.675781 79.238281 153.195312 78.824219 152.121094 Z M 78.824219 152.121094 "/>
</g>
<g clip-path="url(#clip20)" clip-rule="nonzero">
<path style="fill:none;stroke-width:0.955767;stroke-linecap:square;stroke-linejoin:miter;stroke:rgb(0%,0%,0%);stroke-opacity:1;stroke-miterlimit:4;" d="M 950.668059 10.891399 C 950.560777 10.616678 950.560777 10.066234 950.241941 10.066234 C 949.923105 10.066234 949.627329 9.859693 949.313505 9.859693 C 948.999682 9.859693 948.703906 10.066234 948.38507 10.066234 C 948.065231 10.066234 948.065231 10.616678 947.958952 10.891399 C 947.852674 11.167122 949.313505 12.060465 949.313505 12.060465 C 949.313505 12.060465 950.774337 11.167122 950.668059 10.891399 Z M 950.668059 10.891399 " transform="matrix(3.896004,0,0,3.896004,-3624.981994,109.688165)"/>
</g>
<path style=" stroke:none;fill-rule:nonzero;fill:rgb(0%,0%,0%);fill-opacity:1;" d="M 59.890625 144.207031 C 59.890625 147.574219 57.222656 150.300781 53.933594 150.300781 C 50.648438 150.300781 47.980469 147.574219 47.980469 144.207031 C 47.980469 140.839844 50.648438 138.109375 53.933594 138.109375 C 57.222656 138.109375 59.890625 140.839844 59.890625 144.207031 Z M 59.890625 144.207031 "/>
<g clip-path="url(#clip21)" clip-rule="nonzero">
<path style="fill:none;stroke-width:0.955767;stroke-linecap:square;stroke-linejoin:miter;stroke:rgb(53.725493%,17.254902%,62.7451%);stroke-opacity:1;stroke-miterlimit:4;" d="M 945.808311 8.86007 C 945.808311 9.724337 945.123515 10.424173 944.2793 10.424173 C 943.436089 10.424173 942.751292 9.724337 942.751292 8.86007 C 942.751292 7.995803 943.436089 7.294965 944.2793 7.294965 C 945.123515 7.294965 945.808311 7.995803 945.808311 8.86007 Z M 945.808311 8.86007 " transform="matrix(3.896004,0,0,3.896004,-3624.981994,109.688165)"/>
</g>
<path style=" stroke:none;fill-rule:nonzero;fill:rgb(100%,100%,100%);fill-opacity:1;" d="M 54.875 142.492188 C 54.875 144.167969 53.566406 145.527344 51.949219 145.527344 C 50.332031 145.527344 49.019531 144.167969 49.019531 142.492188 C 49.019531 140.8125 50.332031 139.453125 51.949219 139.453125 C 53.566406 139.453125 54.875 140.8125 54.875 142.492188 Z M 54.875 142.492188 "/>
<path style="fill:none;stroke-width:0.955767;stroke-linecap:square;stroke-linejoin:miter;stroke:rgb(0%,0%,0%);stroke-opacity:1;stroke-miterlimit:4;" d="M 942.909708 5.584478 C 943.21551 5.187437 943.700783 4.935777 944.201095 4.914722 C 944.673334 4.894669 945.151588 5.079153 945.48747 5.411023 " transform="matrix(3.896004,0,0,3.896004,-3624.981994,109.688165)"/>
<path style=" stroke:none;fill-rule:nonzero;fill:rgb(100%,100%,100%);fill-opacity:1;" d="M 93.804688 142.917969 C 93.804688 144.59375 92.496094 145.953125 90.878906 145.953125 C 89.261719 145.953125 87.949219 144.59375 87.949219 142.917969 C 87.949219 141.242188 89.261719 139.878906 90.878906 139.878906 C 92.496094 139.878906 93.804688 141.242188 93.804688 142.917969 Z M 93.804688 142.917969 "/>
<path style="fill:none;stroke-width:1.05833;stroke-linecap:round;stroke-linejoin:round;stroke:rgb(53.725493%,17.254902%,62.7451%);stroke-opacity:1;stroke-miterlimit:4;" d="M 961.97204 23.284685 L 942.673269 14.05205 L 937.852947 -6.809641 L 951.139848 -23.590421 L 972.529451 -23.654536 L 985.914606 -6.953692 L 981.215855 13.936309 Z M 961.97204 23.284685 " transform="matrix(4.691239,0,0,4.691239,-4396.927103,116.36753)"/>
<path style="fill:none;stroke-width:1.05833;stroke-linecap:butt;stroke-linejoin:miter;stroke:rgb(23.529412%,43.137255%,70.588237%);stroke-opacity:1;stroke-miterlimit:4;" d="M 943.449316 8.526458 L 963.280996 8.526458 " transform="matrix(4.691239,0,0,4.691239,-4396.927103,116.36753)"/>
<path style="fill:none;stroke-width:1.05833;stroke-linecap:butt;stroke-linejoin:miter;stroke:rgb(23.529412%,43.137255%,70.588237%);stroke-opacity:1;stroke-miterlimit:4;" d="M 952.870967 12.493294 L 980.373194 12.493294 " transform="matrix(4.691239,0,0,4.691239,-4396.927103,116.36753)"/>
<path style="fill-rule:evenodd;fill:rgb(80.000001%,80.000001%,80.000001%);fill-opacity:1;stroke-width:0.79375;stroke-linecap:butt;stroke-linejoin:miter;stroke:rgb(0%,0%,0%);stroke-opacity:1;stroke-miterlimit:4;" d="M 977.468601 11.110815 C 977.236286 9.528744 977.123043 7.806784 976.693386 5.781733 C 976.222928 3.280395 974.631697 1.215376 972.561682 0.459312 C 970.853045 -0.136046 967.305042 -0.137711 965.801242 0.459312 C 963.730394 1.215376 962.139996 3.280395 961.668705 5.781733 C 961.239881 7.806784 961.126638 9.528744 960.894323 11.110815 " transform="matrix(4.691239,0,0,4.691239,-4393.265807,120.513224)"/>
<path style=" stroke:none;fill-rule:nonzero;fill:rgb(90.588236%,90.980393%,91.37255%);fill-opacity:1;" d="M 179.261719 166.074219 C 179.261719 168.464844 177.417969 170.402344 175.144531 170.402344 C 172.871094 170.402344 171.027344 168.464844 171.027344 166.074219 C 171.027344 163.6875 172.871094 161.75 175.144531 161.75 C 177.417969 161.75 179.261719 163.6875 179.261719 166.074219 Z M 179.261719 166.074219 "/>
<path style=" stroke:none;fill-rule:nonzero;fill:rgb(90.588236%,90.980393%,91.37255%);fill-opacity:1;" d="M 137.65625 166.074219 C 137.65625 168.464844 135.8125 170.402344 133.539062 170.402344 C 131.265625 170.402344 129.421875 168.464844 129.421875 166.074219 C 129.421875 163.6875 131.265625 161.75 133.539062 161.75 C 135.8125 161.75 137.65625 163.6875 137.65625 166.074219 Z M 137.65625 166.074219 "/>
<path style="fill:none;stroke-width:0.758321;stroke-linecap:butt;stroke-linejoin:miter;stroke:rgb(65.490198%,66.274512%,67.450982%);stroke-opacity:1;stroke-miterlimit:4;" d="M 955.745633 -3.959978 L 951.075273 -2.708478 " transform="matrix(3.276146,0,0,3.271074,-2990.475122,176.648692)"/>
<path style="fill:none;stroke-width:0.758321;stroke-linecap:butt;stroke-linejoin:miter;stroke:rgb(65.490198%,66.274512%,67.450982%);stroke-opacity:1;stroke-miterlimit:4;" d="M 956.275027 -3.232723 L 951.578437 -0.52074 " transform="matrix(3.276146,0,0,3.271074,-2990.475122,176.648692)"/>
<path style="fill:none;stroke-width:0.758321;stroke-linecap:butt;stroke-linejoin:miter;stroke:rgb(65.490198%,66.274512%,67.450982%);stroke-opacity:1;stroke-miterlimit:4;" d="M 956.419498 -5.981484 L 951.747946 -4.729984 " transform="matrix(-3.276146,0,0,3.271074,3302.577334,183.261187)"/>
<path style="fill:none;stroke-width:0.758321;stroke-linecap:butt;stroke-linejoin:miter;stroke:rgb(65.490198%,66.274512%,67.450982%);stroke-opacity:1;stroke-miterlimit:4;" d="M 956.9477 -5.254229 L 952.251109 -2.542246 " transform="matrix(-3.276146,0,0,3.271074,3302.577334,183.261187)"/>
<path style="fill-rule:nonzero;fill:rgb(100%,100%,100%);fill-opacity:1;stroke-width:0.79375;stroke-linecap:square;stroke-linejoin:miter;stroke:rgb(37.64706%,37.64706%,35.686275%);stroke-opacity:1;stroke-miterlimit:4;" d="M 972.29273 9.066613 C 972.29273 10.543768 971.031236 11.741146 969.474978 11.741146 C 967.918719 11.741146 966.657226 10.543768 966.657226 9.066613 C 966.657226 7.589458 967.918719 6.391247 969.474978 6.391247 C 971.031236 6.391247 972.29273 7.589458 972.29273 9.066613 Z M 972.29273 9.066613 " transform="matrix(4.691239,0,0,4.691239,-4393.265807,120.513224)"/>
<path style="fill-rule:nonzero;fill:rgb(0%,0%,0%);fill-opacity:1;stroke-width:0.79375;stroke-linecap:square;stroke-linejoin:miter;stroke:rgb(53.725493%,17.254902%,62.7451%);stroke-opacity:1;stroke-miterlimit:4;" d="M -972.431786 6.780103 C -972.431786 7.547824 -973.039634 8.169828 -973.789036 8.169828 C -974.538438 8.169828 -975.146287 7.547824 -975.146287 6.780103 C -975.146287 6.013215 -974.538438 5.391211 -973.789036 5.391211 C -973.039634 5.391211 -972.431786 6.013215 -972.431786 6.780103 Z M -972.431786 6.780103 " transform="matrix(-4.691239,0,0,4.691239,-4393.265807,120.513224)"/>
<path style="fill:none;stroke-width:0.79375;stroke-linecap:square;stroke-linejoin:miter;stroke:rgb(0%,0%,0%);stroke-opacity:1;stroke-miterlimit:4;" d="M 975.005566 3.87159 C 974.734116 3.519371 974.302793 3.296216 973.85898 3.277065 C 973.439315 3.258746 973.015487 3.422782 972.716558 3.718379 " transform="matrix(4.691239,0,0,4.691239,-4393.265807,120.513224)"/>
<path style="fill:none;stroke-width:1.13748;stroke-linecap:butt;stroke-linejoin:miter;stroke:rgb(0%,0%,0%);stroke-opacity:1;stroke-miterlimit:4;" d="M 962.305479 -5.782961 L 962.405635 -3.798234 C 962.405635 -3.798234 963.992627 -2.375966 964.919068 -3.831671 C 964.919068 -3.831671 964.818912 -4.658044 964.753334 -4.923152 " transform="matrix(3.276146,0,0,3.271074,-2997.880203,179.799304)"/>
<path style="fill:none;stroke-width:1.13748;stroke-linecap:butt;stroke-linejoin:miter;stroke:rgb(0%,0%,0%);stroke-opacity:1;stroke-miterlimit:4;" d="M 962.287594 -5.782961 L 962.188631 -3.798234 C 962.188631 -3.798234 960.600446 -2.375966 959.675198 -3.831671 C 959.675198 -3.831671 959.774161 -4.658044 959.839739 -4.923152 " transform="matrix(3.276146,0,0,3.271074,-2997.880203,179.799304)"/>
<path style="fill-rule:nonzero;fill:rgb(50.196081%,50.196081%,50.196081%);fill-opacity:1;stroke-width:0.79375;stroke-linecap:square;stroke-linejoin:miter;stroke:rgb(0%,0%,0%);stroke-opacity:1;stroke-miterlimit:4;" d="M 970.678185 8.583665 C 970.58326 8.339692 970.58326 7.850916 970.300153 7.850916 C 970.016213 7.850916 969.753922 7.667729 969.474978 7.667729 C 969.196034 7.667729 968.934576 7.850916 968.650635 7.850916 C 968.367528 7.850916 968.367528 8.339692 968.272604 8.583665 C 968.178512 8.828469 969.474978 9.622003 969.474978 9.622003 C 969.474978 9.622003 970.772276 8.828469 970.678185 8.583665 Z M 970.678185 8.583665 " transform="matrix(4.691239,0,0,4.691239,-4393.265807,120.513224)"/>
<path style="fill-rule:nonzero;fill:rgb(0%,0%,0%);fill-opacity:1;stroke-width:0.79375;stroke-linecap:square;stroke-linejoin:miter;stroke:rgb(53.725493%,17.254902%,62.7451%);stroke-opacity:1;stroke-miterlimit:4;" d="M 966.363293 6.780103 C 966.363293 7.547824 965.755445 8.169828 965.006043 8.169828 C 964.256641 8.169828 963.648792 7.547824 963.648792 6.780103 C 963.648792 6.013215 964.256641 5.391211 965.006043 5.391211 C 965.755445 5.391211 966.363293 6.013215 966.363293 6.780103 Z M 966.363293 6.780103 " transform="matrix(4.691239,0,0,4.691239,-4393.265807,120.513224)"/>
<path style=" stroke:none;fill-rule:nonzero;fill:rgb(100%,100%,100%);fill-opacity:1;" d="M 134.8125 150.488281 C 134.8125 152.28125 133.414062 153.734375 131.683594 153.734375 C 129.953125 153.734375 128.554688 152.28125 128.554688 150.488281 C 128.554688 148.691406 129.953125 147.238281 131.683594 147.238281 C 133.414062 147.238281 134.8125 148.691406 134.8125 150.488281 Z M 134.8125 150.488281 "/>
<path style="fill:none;stroke-width:0.79375;stroke-linecap:square;stroke-linejoin:miter;stroke:rgb(0%,0%,0%);stroke-opacity:1;stroke-miterlimit:4;" d="M 963.789513 3.87159 C 964.060963 3.519371 964.492286 3.296216 964.936099 3.277065 C 965.355764 3.258746 965.779592 3.422782 966.078521 3.718379 " transform="matrix(4.691239,0,0,4.691239,-4393.265807,120.513224)"/>
<path style=" stroke:none;fill-rule:nonzero;fill:rgb(100%,100%,100%);fill-opacity:1;" d="M 176.671875 150.914062 C 176.671875 152.707031 175.269531 154.160156 173.539062 154.160156 C 171.8125 154.160156 170.410156 152.707031 170.410156 150.914062 C 170.410156 149.121094 171.8125 147.664062 173.539062 147.664062 C 175.269531 147.664062 176.671875 149.121094 176.671875 150.914062 Z M 176.671875 150.914062 "/>
<path style="fill:none;stroke-width:1.05833;stroke-linecap:butt;stroke-linejoin:miter;stroke:rgb(23.529412%,43.137255%,70.588237%);stroke-opacity:1;stroke-miterlimit:4;" d="M 950.754322 15.138683 L 963.47584 15.138683 " transform="matrix(4.691239,0,0,4.691239,-4396.927103,116.36753)"/>
<path style="fill:none;stroke-width:1.05833;stroke-linecap:butt;stroke-linejoin:miter;stroke:rgb(23.529412%,43.137255%,70.588237%);stroke-opacity:1;stroke-miterlimit:4;" d="M 958.162579 17.784906 L 968.639221 17.784906 " transform="matrix(4.691239,0,0,4.691239,-4396.927103,116.36753)"/>
</g>
</svg>
